<?xml version="1.0" encoding="utf-8"?>
<!-- Generator: Adobe Illustrator 19.0.0, SVG Export Plug-In . SVG Version: 6.00 Build 0)  -->
<svg version="1.1" id="Página_inicial" xmlns="http://www.w3.org/2000/svg" xmlns:xlink="http://www.w3.org/1999/xlink" x="0px"
	 y="0px" viewBox="-223 405.9 148 30" style="enable-background:new -223 405.9 148 30;" xml:space="preserve">
<style type="text/css">
	.st0{fill:#FFFFFF;}
	.st1{fill:#12AFAF;}
</style>
<title>logo</title>
<g>
	<path class="st0" d="M-175.8,430.8v-20.2h3.6l3.1,7.9c0.6,1.6,1.6,4.2,2.2,5.9h0.1c-0.1-2.1-0.4-5.7-0.4-9.4v-4.4h3.5v20.2h-3.6
		l-3.1-7.7c-0.8-2-1.4-4-2-6.1h-0.1c0.1,2,0.2,5.2,0.2,9.2v4.6H-175.8L-175.8,430.8z"/>
	<path class="st0" d="M-151.7,421.9h-4.6v5.5h5.2v3.4h-9.2v-20.2h8.8v3.4h-4.9v4.7h4.6L-151.7,421.9L-151.7,421.9z"/>
	<path class="st0" d="M-146.2,414.2h-3.6v-3.6h11.1v3.6h-3.6v16.6h-3.9V414.2z"/>
	<path class="st0" d="M-134,430.8l-3.5-20.3h4.1l1,8.1c0.3,2.3,0.5,4.6,0.7,7.1h0.1c0.3-2.5,0.7-4.7,1.1-7.1l1.4-8.1h3.2l1.4,8
		c0.4,2.3,0.7,4.5,1,7.2h0.1c0.3-2.6,0.5-4.8,0.8-7.2l1-8h3.8l-3.6,20.3h-4.1l-1.2-6.6c-0.3-1.9-0.6-4.2-0.9-6.6h-0.1
		c-0.4,2.4-0.7,4.7-1.1,6.7l-1.4,6.6L-134,430.8L-134,430.8z"/>
	<path class="st0" d="M-103.7,420.3c0,7.6-2.7,10.7-6.6,10.7s-6.4-4.9-6.4-10.4s2.2-10.3,6.7-10.3S-103.7,415.7-103.7,420.3z
		 M-112.6,420.7c0,4.6,0.9,6.9,2.5,6.9s2.3-3,2.3-7.1c0-4.1-0.5-6.8-2.3-6.8S-112.6,416.3-112.6,420.7z"/>
	<path class="st0" d="M-101.2,410.9c1.4-0.3,2.9-0.4,4.3-0.4c2.2,0,4.1,0.3,5.4,1.5c1.1,1.1,1.7,2.6,1.6,4.2
		c0.1,2.2-1.1,4.2-3.1,5.1l0,0c1.4,0.5,2.1,1.8,2.5,4c0.3,1.9,0.7,3.7,1.3,5.5h-4.1c-0.5-1.6-0.8-3.2-1-4.8c-0.4-2.5-1-3.2-2.3-3.2
		h-0.6v8.1h-3.9L-101.2,410.9L-101.2,410.9z M-97.3,419.7h0.7c1.7,0,2.7-1.4,2.7-3.2c0-1.8-0.7-2.9-2.5-3h-0.9v6L-97.3,419.7z"/>
	<path class="st0" d="M-87.1,410.6h3.9v9.1h0.1l1-2.6l2.7-6.5h4.3l-4.5,8.8l4.6,11.5h-4.3l-2.9-8.4l-0.9,1.7v6.7h-4L-87.1,410.6
		L-87.1,410.6z"/>
	<g id="Logo">
		<g id="xamagon">
			<path id="Logo-2" class="st1" d="M-213.1,405.9c-0.9,0-1.8,0.5-2.3,1.3l-7.3,12.6c-0.4,0.8-0.4,1.8,0,2.6l7.3,12.4
				c0.5,0.7,1.4,1.2,2.3,1.1h14.6c0.9,0.1,1.8-0.4,2.3-1.1l7.3-12.5c0.5-0.8,0.5-1.8,0-2.6l-7.3-12.5c-0.5-0.8-1.4-1.3-2.3-1.3
				H-213.1z M-213,413h2.6c0.1,0.1,0.2,0.2,0.3,0.3l4.3,7.6v0.2l0,0l4.3-7.7c0.1-0.1,0.2-0.2,0.3-0.3h2.5c0.2,0.1,0.4,0.4,0.3,0.6
				l-4.2,7.5l4.2,7.4c0.1,0.2-0.1,0.4-0.3,0.5l0,0h-2.5l-0.3-0.2l-4.3-7.5h-0.1l-4.3,7.5l-0.3,0.2h-2.5c-0.2,0-0.3,0-0.4-0.2
				c0-0.1,0-0.2,0.1-0.3l4.2-7.4l-4.2-7.5c-0.1-0.2,0-0.4,0.2-0.5l0,0L-213,413z"/>
		</g>
	</g>
</g>
</svg>
